<svg id="Layer_1" data-name="Layer 1" xmlns="http://www.w3.org/2000/svg" viewBox="0 0 2465.59 2500.74"><defs><style>.cls-1{fill:#fefefd;}.cls-2{fill:#5a88da;}.cls-3{fill:#e45203;}.cls-4{fill:#e45205;}.cls-5{fill:#2f2b28;}.cls-6{fill:#302b29;}</style></defs><title>Basketball</title><path class="cls-1" d="M2488.28,1253.91q0,617.17.37,1234.37c0,13.37-2.62,16-16,16q-1216.8-.61-2433.6,0c-13.37,0-16-2.61-16-16q.62-1234.37,0-2468.75c0-13.36,2.61-16,16-16q1216.8.62,2433.59,0c13.37,0,16,2.61,16,16Q2488,636.72,2488.28,1253.91Zm-1587,185.16.33-.39-.77.16c4.54-5,1-9.34-.82-14.1q-74.26-194.94-148.2-390c-3.66-9.65-8.86-14-19.38-15.49-26.85-3.81-53.45-9.32-80.2-13.94-28.29-4.88-56.63-9.52-90.67-15.22C677.18,1142.89,789.24,1291,901.26,1439.07ZM774.44,25.46C712,12.84,653.1,12,594.77,21.19,429,47.41,304.13,137.64,210.35,273.6,150,361.07,110,457.85,82.61,560.4,53.44,669.55,39.56,780.66,36,893.21,32.15,1013,39.46,1132.35,55.49,1251.1Q74.11,1389,105.87,1524.62c.85,3.64.35,8.09,5.24,9.45,11.1,3.07,34.34-16.68,32.3-27.65C116.3,1360.23,92,1213.81,84.33,1064.86,78,942.72,84.25,822,112.91,703.05c44.4-184.3,141.49-331.93,305.83-431.24,105.39-63.69,218.49-90,341.53-70,123.71,20.1,229.09,78.29,324.07,156.29C1212,462.91,1312.91,589.82,1385.58,738.63c2.26,4.61,3.53,11,8.81,12.3,11.79,2.88,26,9.79,35.35,3.52,6.66-4.46-3.35-17.26-7.26-25.54C1326.27,525.56,1188.09,358.65,993.82,242c-94.44-56.7-196.4-91.12-308.3-89-23.06.43-46.1,2-69.15,3l-2.13-3.86Zm443.37,1283c41.61,1.36,84.19-2.91,126.86-7.34,69.88-7.24,137.23-24.55,203.5-47.15,7.93-2.7,10.38-6.91,9.54-14.2-2.14-18.65-5-37.24-6.46-55.94-.94-12.45-6.64-13-16.82-10.61-105.48,24.94-194.36-7.24-269-81.9-54.39-54.43-117.68-94.18-187.83-124.11-12.92-5.51-22.3-2.93-31.45,9.45-26,35.16-46.57,73.1-60.14,114.37-19.06,58-25.92,117.49-17.4,178.39,1.26,9,5,14,14.09,15.6C1060.08,1298.59,1137.59,1310.29,1217.81,1308.46ZM1474.1,1157c19.83-.15,38.76-3.62,57.7-8.42,11.25-2.85,12.91-9.13,10.79-18.64-4.77-21.44-9.15-43-14.42-64.31-19.59-79.35-47.88-155.57-82.68-229.5-4-8.49-8.8-10.8-17.31-12.22a378.54,378.54,0,0,0-102.77-3.45c-89.89,9.58-167.8,45.53-234.54,106.21-10.22,9.29-10.83,14.55,4,20.93,70.72,30.37,135.69,70.1,188.67,126.7C1335.48,1129.8,1401,1151.82,1474.1,1157Zm88,153.94c0-5.86-.28-11.72.05-17.56.76-13.12-3.66-18.35-16.86-12.13-3.48,1.65-7.56,1.94-11.18,3.34-68,26.33-139.55,39.66-211.32,45.48-110.17,8.92-220.65,4.94-329.39-18.09-19.67-4.17-16.75,2.51-13,15,37,122.93,115.16,209.23,232,261.08,8.55,3.79,16,4.24,22.56-6.78,69-116.35,173.41-187.39,298.77-230.87C1562.25,1340.6,1562.52,1341.4,1562.08,1311ZM1370.29,1617.2c38.51,1.83,82.32-6.73,124.87-20.88,23.1-7.68,46.26-14,50.1-47.44,6.28-54.76,11.58-109.57,16.52-164.46,1.29-14.39-4.07-14.57-15.6-10.76-58.58,19.35-113.36,45.88-163.35,82.32-48.74,35.54-89.87,77.91-121.3,129.62-6.85,11.28-9.17,16.81,7.72,20.53A445.47,445.47,0,0,0,1370.29,1617.2Zm18,410.76c-22.55,45.72-40.59,89.44-64.79,129.43-25.62,42.35-28,81.21-8.65,127.12,21.39,50.8,34.94,104.9,51.65,157.64,6.84,21.62,27,13.16,40.83,17.23,9.6,2.82,8.29-11.37,10-17.59,19.48-71.42,38-143.11,57-214.67,2.18-8.23,4.44-15.95.28-24.34C1446.33,2145.71,1418.21,2088.55,1388.34,2028Zm194.81,2c-29.07,62.92-55.83,120.65-82.33,178.5-3.08,6.73-1.55,14.15.27,21.11,21.64,82.84,43.89,165.52,64.58,248.6,3.61,14.51,14.27,11.35,22.11,13.45,9,2.43,8.53-7.17,9.92-13.19,12.8-55.26,26.53-110.32,37.92-165.87,4.62-22.53,17.67-45.28,11.41-68C1627.75,2174.42,1605.74,2105.06,1583.15,2030ZM1100.91,1625c-18.58,59-35.58,113.68-53.09,168.16-3.57,11.1-3,19.4,4.6,29.56,24.14,32.07,46.51,65.48,69.8,98.21,14.34,20.16,29.1,40,45.57,62.66,23.72-59.72,45.33-116.2,68.82-171.87,6.33-15,4.55-24.71-5.82-36.23-22.57-25.09-44-51.27-66-76.86C1144.26,1674.77,1123.5,1651,1100.91,1625Zm73.4,433.68c-2.14,3.91-3.76,5.94-4.44,8.25-18.95,64.19-37.72,128.42-56.77,192.58-2.12,7.14-1.41,13.68.94,20.36,10.86,30.94,25.06,61.17,31.72,93,7.41,35.37,26,51.44,60.66,51.87a10.59,10.59,0,0,1,1.91.38c8.91,1.9,12.89.45,15.21-10.64,13.21-63.11,28-125.89,42-188.85,1.19-5.35,3.65-10.83,0-16.85C1235.14,2159.21,1205.07,2109.44,1174.31,2058.72Zm482.26,175.7c32.84-77,63-149,94.36-220.55,8-18.33,12-35.21,7.33-55.65-9.7-42.23-16.5-85.12-25.23-131.69-44.2,54.86-85.62,106.32-127.17,157.68-3.73,4.61-3,8.37-1.7,14,6.33,26.31,11.26,52.95,17.12,79.38C1632.43,2127.86,1643.88,2178.1,1656.57,2234.42Zm5.62-625.87c-6.79,1.58-8.49,6-11.06,9.63-29.86,42.4-58.07,86.13-90.29,126.66-21.55,27.11-27.25,50.53-11,83,18.85,37.63,31.5,78.37,47.37,119.09,3.57-3.16,5.81-4.51,7.21-6.47,37.49-52.14,74.63-104.55,112.57-156.37,7.07-9.66,4.88-17.82,1.41-27C1699.76,1707.75,1681.06,1658.4,1662.19,1608.55Zm809.47-302.37-2.49-3-520.36,276.43c7.79,4.06,12.86,1.79,18.34.3q197.58-53.76,395.29-107c9-2.41,14.75-6.82,19.29-14.56Q2426.51,1382.18,2471.66,1306.18Zm-1186,889.14c26.6-65.22,51.56-126.38,76.45-187.57,2.28-5.62,2.19-10.89-1.28-16.59-29.81-48.87-59.32-97.93-90.4-149.37-27.76,58.15-54.17,113.79-81,169.24-2.86,5.89-.82,9.58,1.77,14.22C1222,2080.5,1252.63,2135.81,1285.66,2195.32Zm-249.93-328.45c-9.91,56.27-19.25,107.63-27.79,159.12-1.61,9.7-7.21,18.9-1.17,30,32.6,60.06,64.37,120.56,96.8,181.6,1.69-2.84,3.2-4.39,3.61-6.2q22.6-100.11,44.84-200.3c1.17-5.3,2-10.91-2.4-16.53C1112.6,1967,1076,1919.19,1035.73,1866.87Zm453.39,309.44c5.4-3,6.36-7.45,8.1-11.62,20.35-48.63,39.22-98,62-145.43,12.51-26,12.53-48-3.4-71.11-2.5-3.63-3.6-8.19-5.58-12.2-14.65-29.72-29.37-59.41-45.46-91.94-32.9,53.47-63.91,104-95.17,154.41-2.83,4.55-2.24,7.54,0,12.14C1436.32,2065.71,1462.68,2121,1489.12,2176.31Zm253.14-418.85c97.57-103.79,192.14-204.4,287.07-305.4-2.87-1.78-3.62-2.55-3.94-2.4q-147.53,70.1-295.05,140.16c-7.5,3.55-8.75,8.24-7.82,15.37C1729,1654.4,1735.3,1703.63,1742.26,1757.46ZM1475.73,834.73c-.25,14.74,7.56,23.41,11.85,33.33,34.69,80.33,61.74,163.06,78.6,249,2.22,11.36,4,13,13.81,4.92,49.39-40.53,71.44-95.45,83.88-155.63,2-9.74-2.73-17.4-9.51-24.28a446.65,446.65,0,0,0-69.81-57.89C1551.73,862.22,1516.36,845,1475.73,834.73Zm-85.86,1134.6c26.86-61.42,51.59-118.55,77-175.39,3.74-8.37-1.89-12.26-5.09-17.07-22.27-33.37-45.39-66.18-67.29-99.79-6.79-10.42-10.87-10.41-17.56-.74q-33.63,48.62-67.81,96.84c-4.46,6.29-6.59,11.88-3,19.47C1333.55,1850.13,1360.72,1907.73,1389.87,1969.33ZM633.61,1319.16c-2.65,2.62-4.2,3.42-4.22,4.27-1.55,59-2.87,118.1-4.53,177.14-.19,6.88,2.68,10.12,8.34,13.32q114.27,64.5,228.29,129.47l3.09-2.87Zm360,700.59,4.73-1.45c3.17-55.39,6.08-110.78,9.68-166.14.76-11.63-3.43-19.11-12-26.46q-102.87-87.84-205.2-176.32c-3.64-3.13-7-8.25-12.31-3.75Zm774.12-510.48,3,3.11c4.09-2.76,8.35-5.29,12.23-8.32,26.56-20.71,53-41.62,79.57-62.29q117.47-91.29,235.18-182.25c10.1-7.78,12.32-13.51,4.37-24.82-11.88-16.88-21.36-35.45-32-53.19-12.39-20.58-12.47-20.53-27.73-3-.85,1-1.77,1.9-2.6,2.9q-87.64,105.6-175.26,211.21Q1816.14,1451,1767.75,1509.27Zm-.44,446.65,4.25,1.46,228-346.75c-83.11,59.94-163,122.74-243,185.5-3.82,3-5.54,6.07-4.93,11.54C1757.12,1857.06,1762.15,1906.49,1767.31,1955.92Zm-192.55-790.43c2.58,21.21,5.29,42.41,7.67,63.65.94,8.38,4,9.19,11.44,5.69,54.09-25.48,105.05-55.7,149.66-96,8.24-7.44,10.11-14.68,7-25.52-11.78-41.44-28.92-80.28-53.27-115.86-2.65-3.88-2.75-11.43-9.57-10.12-5.58,1.07-3.76,7.58-4.94,11.69-17.87,62-47.54,116.08-102.24,153.45C1575.58,1155.87,1573.58,1159.85,1574.76,1165.49Zm-4.22,392.07c2.56-.21,4.07.12,5-.47,73.79-46.7,128.18-109.61,160.33-191.3,6.67-16.94-4.67-17.29-15.29-17.87-41-2.24-81.4,2.23-121.49,11.24-10.8,2.43-13.36,7.35-13.11,17.24.87,35.09-3.56,69.81-6.74,104.7C1576.92,1506.53,1568.7,1531.47,1570.54,1557.56Zm-741.48-68.12,189.82,291.35c8.82-51.63,15.9-98.32,25.3-144.53,2.49-12.26-.35-17-9.83-23-62.43-39.26-124.52-79.07-186.71-118.72C842.26,1491.09,837.35,1486.21,829.06,1489.44Zm929.94-329c-3.67,2.4-6.47,3.8-8.76,5.78-37.36,32.44-78,60.94-123.57,79.27-33.86,13.62-45.56,32.18-41.4,68,2.27,19.52,8.84,21.24,23.55,17.41,42.18-11,85-10.06,127.68-5.55,12.36,1.3,15-3.08,16.81-12.06C1763.42,1263.52,1770.61,1213.57,1759,1160.46ZM1494.45,2258.09l-4.62-.13c-20.77,64.63-41.4,129.31-62.46,193.85-3.3,10.1.23,12.93,9.54,13.2,4.48.13,8.91,1.58,13.37,2.35,34.13,5.94,68.27,11.86,104.1,18.08Zm-141,192.06c-21.83-63.77-42.59-124.46-63.36-185.14-18.38,51.73-32.77,102.47-47.09,153.23-1.62,5.75-3.14,11.89,5.49,13.43C1282.6,2437.73,1316.68,2443.68,1353.49,2450.15ZM1518,1744.89l63.23-112.1c-34.26,8.54-64.53,16.15-94.85,23.6-8.57,2.1-12,4.93-6.68,14.47C1492.67,1694.26,1504.41,1718.33,1518,1744.89Zm-242.09.9c10.14-23.61,19.22-44.79,28.32-66,2.34-5.44.15-8.75-5.09-10.18-31.57-8.55-63.17-17-99.94-26.88Zm488-231.31.21,1.73-1-.17Z" transform="translate(-23.07 -3.54)"/><path class="cls-2" d="M774.44,25.46l-160.2,126.6,2.13,3.86c23-1,46.09-2.54,69.15-3,111.9-2.08,213.86,32.34,308.3,89,194.27,116.66,332.45,283.57,428.66,486.92,3.91,8.28,13.92,21.08,7.26,25.54-9.36,6.27-23.56-.64-35.35-3.52-5.28-1.29-6.55-7.69-8.81-12.3C1312.91,589.82,1212,462.91,1084.34,358.06c-95-78-200.36-136.19-324.07-156.29-123-20-236.14,6.35-341.53,70C254.4,371.12,157.31,518.75,112.91,703.05,84.25,822,78,942.72,84.33,1064.86c7.66,149,32,295.37,59.08,441.56,2,11-21.2,30.72-32.3,27.65-4.89-1.36-4.39-5.81-5.24-9.45Q74.19,1389.05,55.49,1251.1C39.46,1132.35,32.15,1013,36,893.21,39.56,780.66,53.44,669.55,82.61,560.4,110,457.85,150,361.07,210.35,273.6,304.13,137.64,429,47.41,594.77,21.19,653.1,12,712,12.84,774.44,25.46Z" transform="translate(-23.07 -3.54)"/><path class="cls-3" d="M1217.81,1308.46c-80.22,1.83-157.73-9.87-235.07-23.44-9.11-1.6-12.83-6.57-14.09-15.6-8.52-60.9-1.66-120.44,17.4-178.39,13.57-41.27,34.16-79.21,60.14-114.37,9.15-12.38,18.53-15,31.45-9.45,70.15,29.93,133.44,69.68,187.83,124.11,74.6,74.66,163.48,106.84,269,81.9,10.18-2.41,15.88-1.84,16.82,10.61,1.41,18.7,4.32,37.29,6.46,55.94.84,7.29-1.61,11.5-9.54,14.2-66.27,22.6-133.62,39.91-203.5,47.15C1302,1305.55,1259.42,1309.82,1217.81,1308.46Z" transform="translate(-23.07 -3.54)"/><path class="cls-3" d="M1474.1,1157c-73.12-5.22-138.62-27.24-190.54-82.7-53-56.6-118-96.33-188.67-126.7-14.85-6.38-14.24-11.64-4-20.93,66.74-60.68,144.65-96.63,234.54-106.21A378.54,378.54,0,0,1,1428.18,824c8.51,1.42,13.31,3.73,17.31,12.22,34.8,73.93,63.09,150.15,82.68,229.5,5.27,21.33,9.65,42.87,14.42,64.31,2.12,9.51.46,15.79-10.79,18.64C1512.86,1153.42,1493.93,1156.89,1474.1,1157Z" transform="translate(-23.07 -3.54)"/><path class="cls-4" d="M1562.08,1311c.44,30.42.17,29.62-28.36,39.52C1408.36,1394,1303.94,1465,1235,1581.37c-6.53,11-14,10.57-22.56,6.78-116.83-51.85-195-138.15-232-261.08-3.77-12.54-6.69-19.22,13-15,108.74,23,219.22,27,329.39,18.09,71.77-5.82,143.29-19.15,211.32-45.48,3.62-1.4,7.7-1.69,11.18-3.34,13.2-6.22,17.62-1,16.86,12.13C1561.8,1299.26,1562.08,1305.12,1562.08,1311Z" transform="translate(-23.07 -3.54)"/><path class="cls-4" d="M1370.29,1617.2a445.47,445.47,0,0,1-101-11.07c-16.89-3.72-14.57-9.25-7.72-20.53,31.43-51.71,72.56-94.08,121.3-129.62,50-36.44,104.77-63,163.35-82.32,11.53-3.81,16.89-3.63,15.6,10.76-4.94,54.89-10.24,109.7-16.52,164.46-3.84,33.47-27,39.76-50.1,47.44C1452.61,1610.47,1408.8,1619,1370.29,1617.2Z" transform="translate(-23.07 -3.54)"/><path class="cls-5" d="M1388.34,2028c29.87,60.59,58,117.75,86.29,174.82,4.16,8.39,1.9,16.11-.28,24.34-19,71.56-37.5,143.25-57,214.67-1.7,6.22-.39,20.41-10,17.59-13.85-4.07-34,4.39-40.83-17.23-16.71-52.74-30.26-106.84-51.65-157.64-19.32-45.91-17-84.77,8.65-127.12C1347.75,2117.4,1365.79,2073.68,1388.34,2028Z" transform="translate(-23.07 -3.54)"/><path class="cls-5" d="M1583.15,2030c22.59,75.09,44.6,144.45,63.88,214.56,6.26,22.76-6.79,45.51-11.41,68-11.39,55.55-25.12,110.61-37.92,165.87-1.39,6-.88,15.62-9.92,13.19-7.84-2.1-18.5,1.06-22.11-13.45-20.69-83.08-42.94-165.76-64.58-248.6-1.82-7-3.35-14.38-.27-21.11C1527.32,2150.62,1554.08,2092.89,1583.15,2030Z" transform="translate(-23.07 -3.54)"/><path class="cls-5" d="M901.31,1439.08l-339.76-449c34,5.7,62.38,10.34,90.67,15.22,26.75,4.62,53.35,10.13,80.2,13.94,10.52,1.5,15.72,5.84,19.38,15.49q73.79,195.12,148.2,390c1.82,4.76,5.36,9.11.82,14.1Z" transform="translate(-23.07 -3.54)"/><path class="cls-5" d="M1100.91,1625c22.59,26,43.35,49.73,63.91,73.63,22,25.59,43.4,51.77,66,76.86,10.37,11.52,12.15,21.22,5.82,36.23-23.49,55.67-45.1,112.15-68.82,171.87-16.47-22.63-31.23-42.5-45.57-62.66-23.29-32.73-45.66-66.14-69.8-98.21-7.65-10.16-8.17-18.46-4.6-29.56C1065.33,1738.72,1082.33,1684.07,1100.91,1625Z" transform="translate(-23.07 -3.54)"/><path class="cls-5" d="M1174.31,2058.72c30.76,50.72,60.83,100.49,91.18,150.09,3.68,6,1.22,11.5,0,16.85-14,63-28.77,125.74-42,188.85-2.32,11.09-6.3,12.54-15.21,10.64a10.59,10.59,0,0,0-1.91-.38c-34.67-.43-53.25-16.5-60.66-51.87-6.66-31.82-20.86-62.05-31.72-93-2.35-6.68-3.06-13.22-.94-20.36,19.05-64.16,37.82-128.39,56.77-192.58C1170.55,2064.66,1172.17,2062.63,1174.31,2058.72Z" transform="translate(-23.07 -3.54)"/><path class="cls-5" d="M1656.57,2234.42c-12.69-56.32-24.14-106.56-35.29-156.87-5.86-26.43-10.79-53.07-17.12-79.38-1.35-5.59-2-9.35,1.7-14,41.55-51.36,83-102.82,127.17-157.68,8.73,46.57,15.53,89.46,25.23,131.69,4.7,20.44.7,37.32-7.33,55.65C1719.62,2085.39,1689.41,2157.4,1656.57,2234.42Z" transform="translate(-23.07 -3.54)"/><path class="cls-5" d="M1662.19,1608.55c18.87,49.85,37.57,99.2,56.23,148.55,3.47,9.16,5.66,17.32-1.41,27-37.94,51.82-75.08,104.23-112.57,156.37-1.4,2-3.64,3.31-7.21,6.47-15.87-40.72-28.52-81.46-47.37-119.09-16.27-32.46-10.57-55.88,11-83,32.22-40.53,60.43-84.26,90.29-126.66C1653.7,1614.53,1655.4,1610.13,1662.19,1608.55Z" transform="translate(-23.07 -3.54)"/><path class="cls-6" d="M2471.66,1306.18q-45,76.08-89.93,152.2c-4.54,7.74-10.33,12.15-19.29,14.56q-197.74,53.11-395.29,107c-5.48,1.49-10.55,3.76-18.34-.3l520.36-276.43Z" transform="translate(-23.07 -3.54)"/><path class="cls-5" d="M1285.66,2195.32c-33-59.51-63.7-114.82-94.47-170.07-2.59-4.64-4.63-8.33-1.77-14.22,26.84-55.45,53.25-111.09,81-169.24,31.08,51.44,60.59,100.5,90.4,149.37,3.47,5.7,3.56,11,1.28,16.59C1337.22,2068.94,1312.26,2130.1,1285.66,2195.32Z" transform="translate(-23.07 -3.54)"/><path class="cls-5" d="M1035.73,1866.87c40.25,52.32,76.87,100.17,113.89,147.71,4.38,5.62,3.57,11.23,2.4,16.53q-22.07,100.23-44.84,200.3c-.41,1.81-1.92,3.36-3.61,6.2-32.43-61-64.2-121.54-96.8-181.6-6-11.12-.44-20.32,1.17-30C1016.48,1974.5,1025.82,1923.14,1035.73,1866.87Z" transform="translate(-23.07 -3.54)"/><path class="cls-5" d="M1489.12,2176.31c-26.44-55.28-52.8-110.6-79.51-165.75-2.23-4.6-2.82-7.59,0-12.14,31.26-50.39,62.27-100.94,95.17-154.41,16.09,32.53,30.81,62.22,45.46,91.94,2,4,3.08,8.57,5.58,12.2,15.93,23.1,15.91,45.08,3.4,71.11-22.79,47.46-41.66,96.8-62,145.43C1495.48,2168.86,1494.52,2173.27,1489.12,2176.31Z" transform="translate(-23.07 -3.54)"/><path class="cls-6" d="M1742.26,1757.46c-7-53.83-13.28-103.06-19.74-152.27-.93-7.13.32-11.82,7.82-15.37Q1878,1520,2025.39,1449.66c.32-.15,1.07.62,3.94,2.4C1934.4,1553.06,1839.83,1653.67,1742.26,1757.46Z" transform="translate(-23.07 -3.54)"/><path class="cls-4" d="M1475.73,834.73c40.63,10.26,76,27.49,108.82,49.42A446.65,446.65,0,0,1,1654.36,942c6.78,6.88,11.52,14.54,9.51,24.28-12.44,60.18-34.49,115.1-83.88,155.63-9.85,8.08-11.59,6.44-13.81-4.92-16.86-85.91-43.91-168.64-78.6-249C1483.29,858.14,1475.48,849.47,1475.73,834.73Z" transform="translate(-23.07 -3.54)"/><path class="cls-5" d="M1389.87,1969.33c-29.15-61.6-56.32-119.2-83.74-176.68-3.62-7.59-1.49-13.18,3-19.47q34.2-48.21,67.81-96.84c6.69-9.67,10.77-9.68,17.56.74,21.9,33.61,45,66.42,67.29,99.79,3.2,4.81,8.83,8.7,5.09,17.07C1441.46,1850.78,1416.73,1907.91,1389.87,1969.33Z" transform="translate(-23.07 -3.54)"/><path class="cls-6" d="M633.61,1319.16l231,321.33-3.09,2.87q-114.11-64.8-228.29-129.47c-5.66-3.2-8.53-6.44-8.34-13.32,1.66-59,3-118.09,4.53-177.14C629.41,1322.58,631,1321.78,633.61,1319.16Z" transform="translate(-23.07 -3.54)"/><path class="cls-6" d="M993.63,2019.75,778.49,1645.63c5.35-4.5,8.67.62,12.31,3.75q102.56,88.2,205.2,176.32c8.61,7.35,12.8,14.83,12,26.46-3.6,55.36-6.51,110.75-9.68,166.14Z" transform="translate(-23.07 -3.54)"/><path class="cls-6" d="M1767.75,1509.27q48.39-58.3,96.76-116.62,87.63-105.6,175.26-211.21c.83-1,1.75-1.92,2.6-2.9,15.26-17.56,15.34-17.61,27.73,3,10.68,17.74,20.16,36.31,32,53.19,8,11.31,5.73,17-4.37,24.82q-117.9,90.72-235.18,182.25c-26.6,20.67-53,41.58-79.57,62.29-3.88,3-8.14,5.56-12.23,8.32Z" transform="translate(-23.07 -3.54)"/><path class="cls-6" d="M1767.31,1955.92c-5.16-49.43-10.19-98.86-15.68-148.25-.61-5.47,1.11-8.54,4.93-11.54,80-62.76,159.88-125.56,243-185.5l-228,346.75Z" transform="translate(-23.07 -3.54)"/><path class="cls-4" d="M1574.76,1165.49c-1.18-5.64.82-9.62,5.78-13,54.7-37.37,84.37-91.47,102.24-153.45,1.18-4.11-.64-10.62,4.94-11.69,6.82-1.31,6.92,6.24,9.57,10.12,24.35,35.58,41.49,74.42,53.27,115.86,3.08,10.84,1.21,18.08-7,25.52-44.61,40.29-95.57,70.51-149.66,96-7.43,3.5-10.5,2.69-11.44-5.69C1580.05,1207.9,1577.34,1186.7,1574.76,1165.49Z" transform="translate(-23.07 -3.54)"/><path class="cls-4" d="M1570.54,1557.56c-1.84-26.09,6.38-51,8.7-76.46,3.18-34.89,7.61-69.61,6.74-104.7-.25-9.89,2.31-14.81,13.11-17.24,40.09-9,80.46-13.48,121.49-11.24,10.62.58,22,.93,15.29,17.87-32.15,81.69-86.54,144.6-160.33,191.3C1574.61,1557.68,1573.1,1557.35,1570.54,1557.56Z" transform="translate(-23.07 -3.54)"/><path class="cls-6" d="M829.06,1489.44c8.29-3.23,13.2,1.65,18.58,5.08,62.19,39.65,124.28,79.46,186.71,118.72,9.48,6,12.32,10.76,9.83,23-9.4,46.21-16.48,92.9-25.3,144.53Z" transform="translate(-23.07 -3.54)"/><path class="cls-4" d="M1759,1160.46c11.61,53.11,4.42,103.06-5.69,152.85-1.82,9-4.45,13.36-16.81,12.06-42.64-4.51-85.5-5.44-127.68,5.55-14.71,3.83-21.28,2.11-23.55-17.41-4.16-35.82,7.54-54.38,41.4-68,45.58-18.33,86.21-46.83,123.57-79.27C1752.53,1164.26,1755.33,1162.86,1759,1160.46Z" transform="translate(-23.07 -3.54)"/><path class="cls-6" d="M1494.45,2258.09l59.93,227.35c-35.83-6.22-70-12.14-104.1-18.08-4.46-.77-8.89-2.22-13.37-2.35-9.31-.27-12.84-3.1-9.54-13.2,21.06-64.54,41.69-129.22,62.46-193.85Z" transform="translate(-23.07 -3.54)"/><path class="cls-6" d="M1353.49,2450.15c-36.81-6.47-70.89-12.42-105-18.48-8.63-1.54-7.11-7.68-5.49-13.43,14.32-50.76,28.71-101.5,47.09-153.23C1310.9,2325.69,1331.66,2386.38,1353.49,2450.15Z" transform="translate(-23.07 -3.54)"/><path class="cls-6" d="M1518,1744.89c-13.63-26.56-25.37-50.63-38.3-74-5.27-9.54-1.89-12.37,6.68-14.47,30.32-7.45,60.59-15.06,94.85-23.6Z" transform="translate(-23.07 -3.54)"/><path class="cls-6" d="M1276,1745.79l-76.71-103c36.77,9.88,68.37,18.33,99.94,26.88,5.24,1.43,7.43,4.74,5.09,10.18C1295.17,1701,1286.09,1722.18,1276,1745.79Z" transform="translate(-23.07 -3.54)"/><polygon class="cls-6" points="1740.87 1510.94 1740.09 1512.5 1741.07 1512.67 1740.87 1510.94"/><path class="cls-5" d="M900.82,1438.84l.77-.16a3.9,3.9,0,0,0-.31.4S900.82,1438.84,900.82,1438.84Z" transform="translate(-23.07 -3.54)"/></svg>